<svg width="39" height="36" viewBox="0 0 39 36" fill="none" xmlns="http://www.w3.org/2000/svg">
<path d="M9.68999 9.69423C9.24999 9.22008 8.82999 8.72438 8.41999 8.19634L2.39999 1.67676C2.80999 2.20479 3.22999 2.70049 3.66999 3.17465L9.68999 9.69423Z" fill="#CCCCCC"/>
<path d="M3.39999 10.3521L9.41999 16.8716C9.70999 17.1841 10.02 17.4643 10.37 17.7337L4.34999 11.2141C3.99999 10.9555 3.68999 10.6646 3.39999 10.3521Z" fill="#CCCCCC"/>
<path d="M3.34 15.5352L9.35999 22.0547C10.24 23.003 11.34 23.6388 12.66 23.9621L6.63999 17.4425C5.31999 17.1193 4.22 16.4942 3.34 15.5352Z" fill="#CCCCCC"/>
<path d="M37.15 8.6817C37.2 8.58471 37.23 8.48773 37.28 8.39074C37.36 8.20755 37.45 8.03513 37.51 7.85193C37.56 7.72262 37.6 7.58253 37.64 7.44244L31.62 0.922852C31.52 1.25691 31.39 1.56942 31.26 1.87116C31.22 1.96814 31.18 2.0759 31.13 2.16211C31.02 2.38841 30.88 2.59316 30.75 2.79791C30.67 2.92722 30.6 3.05654 30.51 3.17507C30.35 3.3906 30.17 3.57379 29.99 3.76776C29.9 3.86475 29.82 3.97251 29.73 4.05872C29.44 4.32812 29.13 4.58675 28.8 4.82383L30.31 6.46181C29.99 6.76354 29.68 7.06527 29.33 7.33468L29.22 7.56098C29.24 8.19677 29.22 8.83257 29.18 9.46836C29.15 9.88863 29.13 10.3089 29.07 10.7292C29 11.3326 28.9 11.9361 28.77 12.5288C28.69 12.8952 28.6 13.2616 28.51 13.628C28.47 13.7681 28.45 13.9081 28.41 14.0482C28.27 14.5547 28.11 15.0504 27.94 15.5461C27.75 16.0742 27.55 16.6022 27.32 17.1194C27.11 17.5936 26.88 18.0462 26.64 18.4988C26.47 18.8113 26.29 19.113 26.11 19.4148C25.99 19.6087 25.88 19.8135 25.76 20.0075C25.55 20.3415 25.32 20.6648 25.08 20.9881C24.97 21.139 24.88 21.2898 24.77 21.4299C24.42 21.8825 24.06 22.3351 23.67 22.7554C21.23 25.4494 18.33 27.2275 14.98 28.1219L9.84 22.5614C7.89 22.4968 6.36 21.6023 5.29 20.4493L11.31 26.9689C11.86 27.5616 12.54 28.0788 13.34 28.4668C12.49 28.6069 11.64 28.7038 10.78 28.7362C10.58 28.7469 10.38 28.7469 10.18 28.7469C6.58 28.7469 3.24 27.7124 0.160004 25.6542L0 25.5464L6.02 32.066L6.18 32.1738C9.25 34.232 12.59 35.2665 16.2 35.2665C16.4 35.2665 16.6 35.2665 16.8 35.2558C18.06 35.2126 19.29 35.0726 20.51 34.7816C24.07 33.9411 27.14 32.1091 29.69 29.2858C30.08 28.8547 30.44 28.4129 30.79 27.9603C30.8 27.9495 30.81 27.9387 30.82 27.928C30.92 27.7986 31.01 27.6478 31.1 27.5185C31.33 27.1952 31.56 26.8719 31.78 26.5378C31.9 26.3439 32.01 26.1391 32.13 25.9451C32.31 25.6434 32.49 25.3417 32.66 25.0292C32.68 24.9861 32.71 24.943 32.74 24.8998C32.95 24.4904 33.15 24.0809 33.34 23.6606C33.57 23.1433 33.77 22.6153 33.96 22.0873C33.96 22.0765 33.97 22.0657 33.97 22.0549C34.14 21.57 34.29 21.0851 34.43 20.5894C34.47 20.4493 34.5 20.3092 34.53 20.1691C34.61 19.8458 34.7 19.5225 34.77 19.1992C34.78 19.1561 34.78 19.113 34.79 19.0699C34.91 18.4772 35.01 17.8738 35.09 17.2703C35.13 16.9255 35.17 16.5806 35.19 16.225C35.2 16.1496 35.19 16.0742 35.19 15.9987C35.23 15.3629 35.25 14.7271 35.23 14.0913L35.34 13.865C35.79 13.5094 36.22 13.1323 36.63 12.7228C36.76 12.5935 36.87 12.4318 37 12.2917C37.25 12.0115 37.52 11.7314 37.75 11.4296C37.76 11.4188 37.77 11.4081 37.78 11.3973C37.82 11.3434 37.86 11.3003 37.9 11.2464C38.13 10.9447 38.33 10.6322 38.54 10.2981L37.13 8.77869C37.13 8.7248 37.14 8.70325 37.15 8.6817Z" fill="#5C5C5C"/>
<path d="M32.5 3.74599C32.26 4.13393 32.02 4.50032 31.75 4.84516C31.05 5.78269 30.23 6.61245 29.32 7.32368L29.21 7.54998C29.24 8.60604 29.2 9.67289 29.06 10.729C28.8 12.9596 28.2 15.0825 27.31 17.1084C26.37 19.199 25.18 21.0956 23.67 22.7552C21.11 25.5893 18.05 27.4105 14.49 28.251C13.27 28.5312 12.04 28.6821 10.78 28.7252C10.58 28.7359 10.38 28.7359 10.18 28.7359C6.58 28.7359 3.24 27.7014 0.160004 25.6432L0 25.5354C0.53 25.6001 1.05001 25.6216 1.56001 25.6216C3.32001 25.6216 5.01 25.266 6.66 24.5548C7.8 24.0483 8.85 23.4017 9.83 22.5612C6.38 22.4427 4.24 19.7594 3.68 17.5826C4.09 17.6688 4.51 17.7119 4.92 17.7119C5.46 17.7119 6 17.6365 6.53 17.5072L6.63 17.4533C4.75 16.9791 3.32 15.9123 2.34 14.1666C1.68 13.0135 1.37 11.7419 1.38 10.3626C2.32 10.9014 3.29 11.1923 4.34 11.2247C2.94 10.1363 2.01 8.70303 1.63 6.88186C1.26 5.06068 1.52 3.32572 2.39 1.68774C5.95 6.25684 10.49 8.76769 16.05 9.18796C16.01 8.897 15.98 8.64915 15.94 8.4013C15.77 6.70944 16.1 5.14689 16.96 3.72444C18.03 1.92482 19.54 0.81487 21.49 0.480809C21.9 0.405375 22.31 0.373047 22.7 0.373047C24.44 0.373047 25.98 1.09505 27.3 2.48518C27.38 2.56061 27.45 2.60371 27.54 2.60371C27.57 2.60371 27.61 2.60372 27.64 2.59294C29.01 2.28043 30.31 1.7524 31.52 0.998065L31.61 0.944184C31.13 2.60371 30.16 3.89686 28.78 4.84516C30.08 4.67274 31.31 4.29557 32.5 3.74599Z" fill="white"/>
</svg>
