<svg width="38" height="40" viewBox="0 0 38 40" fill="none" xmlns="http://www.w3.org/2000/svg">
<path d="M14.77 11.3906C14.54 11.466 14.3 11.5415 14.08 11.6492C13.95 11.7139 13.84 11.7893 13.72 11.854C13.53 11.9725 13.34 12.091 13.16 12.2311C13.04 12.3173 12.94 12.4143 12.83 12.5221C12.67 12.673 12.51 12.8346 12.37 13.007C12.32 13.0717 12.25 13.1256 12.19 13.1902C12.14 13.2549 12.11 13.3195 12.07 13.3842C11.99 13.5027 11.91 13.6213 11.84 13.7506C11.79 13.8368 11.73 13.9122 11.69 13.9984C11.64 14.0954 11.6 14.214 11.55 14.3217C11.51 14.4079 11.47 14.4941 11.43 14.5911C11.41 14.645 11.38 14.6881 11.36 14.742C11.28 14.9791 11.21 15.2269 11.15 15.4855C11.15 15.4963 11.15 15.4963 11.15 15.5071C11.14 15.5286 11.14 15.561 11.14 15.5825C11.1 15.8088 11.06 16.0459 11.04 16.2938C11.03 16.4015 11.03 16.5201 11.03 16.6278C11.03 16.8326 11.03 17.0373 11.05 17.2421C11.06 17.3714 11.09 17.4899 11.11 17.6192C11.12 17.6947 11.13 17.7809 11.15 17.8563C11.21 18.158 11.28 18.449 11.38 18.7184C11.39 18.74 11.4 18.7615 11.41 18.7831C11.43 18.8369 11.45 18.88 11.47 18.9339C11.57 19.1925 11.69 19.4296 11.83 19.6667C11.87 19.7314 11.91 19.796 11.95 19.8607C11.98 19.9038 12 19.9577 12.03 20.0008C12.18 20.2163 12.34 20.421 12.52 20.615L16.77 25.2164C16.55 25.238 16.33 25.2595 16.11 25.2595C14.74 25.2595 13.46 24.8931 12.34 24.2358C11.67 23.8479 11.06 23.3522 10.53 22.7702L16.55 29.2898C17.97 30.8308 19.94 31.7791 22.13 31.7791C22.43 31.7791 22.72 31.7576 23 31.7252C23.09 31.7145 23.18 31.6929 23.28 31.6821C23.47 31.6498 23.66 31.6175 23.85 31.5744C23.96 31.5528 24.06 31.5205 24.17 31.4882C24.34 31.4451 24.51 31.3912 24.67 31.3265C24.78 31.2834 24.88 31.2403 24.99 31.1972C25.15 31.1326 25.3 31.0679 25.45 30.9925C25.55 30.9386 25.66 30.8847 25.76 30.8308C25.91 30.7446 26.06 30.6584 26.2 30.5614C26.29 30.4968 26.39 30.4429 26.48 30.3782C26.63 30.2705 26.78 30.1627 26.92 30.0442C27 29.9795 27.07 29.9256 27.15 29.861C27.33 29.6993 27.51 29.5377 27.68 29.3545C27.71 29.3222 27.74 29.3006 27.77 29.2683C27.96 29.0635 28.15 28.8372 28.32 28.6109C28.33 28.6001 28.34 28.5894 28.35 28.5786C28.37 28.557 28.38 28.5355 28.39 28.5139C28.65 28.1583 28.9 27.7812 29.11 27.3824C29.12 27.3717 29.13 27.3501 29.14 27.3393C29.14 27.3286 29.15 27.3286 29.15 27.3178C29.32 26.9945 29.46 26.6604 29.59 26.3156C29.6 26.2725 29.63 26.2402 29.64 26.1971C29.66 26.154 29.67 26.1001 29.68 26.0462C29.77 25.766 29.85 25.4751 29.92 25.1841C29.93 25.141 29.95 25.0979 29.96 25.044C29.96 25.0332 29.96 25.0117 29.97 25.0009C30.04 24.6453 30.09 24.2789 30.12 23.9125C30.12 23.8802 30.13 23.8479 30.13 23.8048C30.14 23.6108 30.15 23.406 30.15 23.2013C30.15 22.9103 30.14 22.6194 30.12 22.3284C30.09 21.9728 30.03 21.6172 29.96 21.2724C29.94 21.1754 29.92 21.0784 29.89 20.9814C29.83 20.712 29.75 20.4534 29.66 20.2055C29.64 20.1516 29.63 20.0977 29.61 20.0331C29.6 20.0115 29.59 19.9792 29.58 19.9577C29.46 19.6451 29.33 19.3434 29.18 19.0417C29.15 18.9878 29.12 18.9339 29.09 18.88C28.96 18.643 28.82 18.4059 28.68 18.1796C28.65 18.1365 28.63 18.0934 28.61 18.0503C28.58 18.0179 28.55 17.9856 28.53 17.9425C28.32 17.6516 28.1 17.3714 27.86 17.102L21.83 10.6255C22.07 10.8841 22.29 11.1751 22.5 11.466C22.55 11.5415 22.61 11.6169 22.66 11.6923C22.81 11.9186 22.95 12.1449 23.08 12.3928C23.11 12.4467 23.14 12.5005 23.17 12.5544C23.32 12.8454 23.45 13.1579 23.57 13.4704C23.6 13.5458 23.62 13.632 23.65 13.7075C23.74 13.9661 23.81 14.2247 23.88 14.4834C23.9 14.5803 23.93 14.6773 23.95 14.7743C24.02 15.1192 24.08 15.464 24.11 15.8304C24.13 16.1213 24.15 16.4123 24.14 16.7033C24.14 16.9296 24.12 17.1451 24.1 17.3714L19.83 12.7592C18.92 11.7785 17.66 11.1643 16.26 11.1535C16.24 11.1535 16.23 11.1535 16.21 11.1535C15.83 11.1535 15.46 11.2074 15.1 11.2936C14.99 11.3044 14.88 11.3583 14.77 11.3906ZM18.1 19.9146C18.19 19.7852 18.3 19.6559 18.4 19.5374C18.54 19.365 18.7 19.2033 18.86 19.0525C18.97 18.9555 19.08 18.8585 19.19 18.7615C19.37 18.6214 19.56 18.5029 19.75 18.3843C19.87 18.3089 19.99 18.2335 20.11 18.1796C20.33 18.0718 20.56 17.9964 20.8 17.921C20.91 17.8886 21.02 17.8348 21.14 17.8132C21.5 17.727 21.87 17.6731 22.25 17.6731C22.27 17.6731 22.28 17.6731 22.3 17.6731C22.91 17.6839 23.48 17.8132 24.01 18.0287C23.99 18.1796 23.98 18.3412 23.94 18.5029C23.93 18.5675 23.91 18.6214 23.9 18.6861C23.83 18.977 23.75 19.268 23.66 19.5482C23.63 19.6344 23.6 19.7314 23.57 19.8176C23.44 20.1624 23.3 20.5072 23.13 20.8305C23.12 20.8521 23.11 20.8736 23.09 20.8952C22.88 21.2939 22.64 21.6711 22.37 22.0267C22.35 22.059 22.33 22.0913 22.3 22.1237C22.13 22.35 21.94 22.5763 21.75 22.781C21.72 22.8133 21.69 22.8349 21.67 22.8672C21.5 23.0396 21.32 23.2121 21.14 23.3737C21.07 23.4384 20.99 23.4922 20.91 23.5569C20.76 23.6754 20.62 23.794 20.47 23.9017C20.38 23.9664 20.29 24.0203 20.19 24.0849C20.04 24.1819 19.9 24.2681 19.75 24.3543C19.65 24.4082 19.55 24.4621 19.45 24.516C19.3 24.5914 19.14 24.6561 18.99 24.7207C18.88 24.7638 18.78 24.8069 18.67 24.85C18.51 24.9147 18.34 24.9578 18.17 25.0117C18.06 25.044 17.96 25.0763 17.85 25.0979C17.7 25.1302 17.55 25.1518 17.4 25.1841C17.32 24.9363 17.24 24.6884 17.19 24.419C17.17 24.3436 17.17 24.2574 17.15 24.1819C17.1 23.8586 17.07 23.5353 17.07 23.2013C17.08 22.8457 17.12 22.4901 17.18 22.156C17.18 22.1344 17.19 22.1021 17.19 22.0806C17.26 21.7681 17.35 21.4663 17.47 21.1646C17.51 21.0784 17.55 20.9814 17.59 20.8952C17.68 20.7012 17.78 20.518 17.88 20.3348C17.94 20.1624 18.02 20.0331 18.1 19.9146Z" fill="#5C5C5C"/>
<path d="M9.19003 37.0597C10.2 38.1481 11.53 38.9348 13.17 39.3874C14.41 39.7322 18.09 39.8831 21.78 39.8831C25.38 39.8831 28.99 39.743 30.33 39.5059C30.84 39.4197 31.31 39.2904 31.77 39.1395C31.91 39.0964 32.05 39.0317 32.18 38.9779C32.49 38.8593 32.78 38.7192 33.06 38.5684C33.2 38.4929 33.34 38.4067 33.48 38.3205C33.74 38.1589 33.99 37.9757 34.23 37.7709C34.35 37.674 34.46 37.5877 34.57 37.4908C34.86 37.2213 35.12 36.9304 35.37 36.6179C35.4 36.5748 35.45 36.5424 35.48 36.4993C35.49 36.4886 35.49 36.4778 35.49 36.4778C35.76 36.1222 36 35.7342 36.22 35.3247C36.23 35.3032 36.24 35.2924 36.25 35.2709C36.31 35.1523 36.36 35.0015 36.42 34.8829C36.54 34.6135 36.67 34.3441 36.78 34.0532C36.79 34.01 36.81 33.9777 36.83 33.9454C36.95 33.5898 37.07 33.2234 37.16 32.8354C37.18 32.76 37.19 32.6846 37.21 32.6091C37.23 32.4906 37.25 32.3613 37.28 32.232C37.28 32.2104 37.29 32.1889 37.29 32.1673C37.32 31.941 37.35 31.6932 37.38 31.4238C37.39 31.3591 37.39 31.2837 37.4 31.219C37.43 30.9604 37.45 30.691 37.47 30.4C37.47 30.3677 37.48 30.3354 37.48 30.303C37.48 30.2923 37.48 30.2815 37.48 30.2707C37.5 29.9474 37.52 29.6026 37.54 29.247C37.55 29.1392 37.55 29.0207 37.56 28.9021C37.57 28.6327 37.58 28.3633 37.6 28.0939C37.61 27.9538 37.61 27.803 37.62 27.6629C37.63 27.3935 37.64 27.1241 37.64 26.8439C37.64 26.7038 37.65 26.5529 37.65 26.4128C37.66 26.0788 37.66 25.7447 37.67 25.3999C37.67 25.3137 37.67 25.2275 37.67 25.1413C37.68 24.7102 37.68 24.2792 37.68 23.8373C37.68 23.7188 37.68 23.6003 37.68 23.4817C37.68 23.1584 37.68 22.8459 37.68 22.5226C37.68 22.3718 37.68 22.2209 37.68 22.07C37.68 21.7791 37.68 21.4881 37.68 21.208C37.68 21.0679 37.68 20.9278 37.68 20.7877C37.68 20.4644 37.67 20.1411 37.67 19.8286C37.67 19.7424 37.67 19.6562 37.67 19.57C37.66 19.1713 37.66 18.7941 37.65 18.4277C37.65 18.3523 37.65 18.2876 37.64 18.2122C37.63 17.9212 37.63 17.6518 37.62 17.3824C37.62 17.2746 37.61 17.1777 37.61 17.0807C37.6 16.8652 37.6 16.6496 37.59 16.4557C37.59 16.3587 37.58 16.2725 37.58 16.1755C37.57 15.9707 37.56 15.7875 37.55 15.6151C37.55 15.5612 37.54 15.4966 37.54 15.4427C37.53 15.238 37.52 15.0548 37.5 14.9039C37.5 14.8931 37.5 14.8823 37.5 14.8716C37.46 14.3759 37.38 13.8909 37.27 13.4276C37.24 13.2767 37.19 13.1366 37.15 12.9857C37.09 12.7487 37.03 12.5008 36.95 12.2745C36.92 12.1991 36.88 12.1236 36.85 12.0374C36.8 11.9081 36.74 11.7896 36.69 11.6603C36.55 11.3478 36.4 11.0568 36.22 10.7551C36.16 10.6473 36.1 10.5395 36.03 10.4318C36 10.3779 35.97 10.324 35.93 10.2701C35.7 9.93607 35.45 9.62356 35.17 9.32183L29.15 2.80225C29.47 3.15786 29.75 3.52425 30.01 3.91219C30.08 4.01995 30.14 4.12772 30.2 4.23548C30.37 4.52643 30.53 4.82817 30.67 5.14068C30.72 5.26999 30.78 5.38853 30.83 5.51784C30.95 5.81958 31.04 6.14286 31.13 6.46615C31.17 6.61701 31.22 6.7571 31.25 6.90797C31.35 7.38212 31.43 7.85627 31.48 8.35198C31.49 8.50284 31.51 8.69681 31.52 8.92311C31.52 8.98777 31.53 9.0632 31.53 9.12786C31.54 9.2895 31.55 9.46192 31.56 9.65589C31.56 9.66667 31.56 9.66667 31.56 9.67745L27.18 4.93593C26.4 4.09539 25.35 3.53503 24.05 3.3195C22.72 3.10398 19.5 3.00699 16.3 3.00699C13.21 3.00699 10.14 3.0932 8.79004 3.25485C8.42004 3.29795 8.06003 3.38416 7.73003 3.48115C7.62003 3.51347 7.52003 3.55658 7.42003 3.59968C7.20003 3.68589 6.98003 3.7721 6.77003 3.86909C6.66003 3.92297 6.55003 3.98763 6.45003 4.05228C6.27003 4.16004 6.09004 4.28936 5.93004 4.41867C5.83004 4.49411 5.74003 4.56954 5.64003 4.65575C5.48003 4.80661 5.33003 4.96826 5.19003 5.14068C5.14003 5.20533 5.07003 5.25921 5.02003 5.32387C5.00003 5.3562 4.98004 5.38853 4.96004 5.42086C4.87004 5.53939 4.80003 5.67948 4.72003 5.8088C4.66003 5.90578 4.59003 6.00277 4.53003 6.11053C4.51003 6.14286 4.50003 6.18596 4.48003 6.22907C4.43003 6.33683 4.38003 6.45537 4.34003 6.56313C4.29003 6.68167 4.23003 6.78943 4.19003 6.90797C4.17003 6.97263 4.16003 7.03728 4.14003 7.09116C4.10003 7.22048 4.06003 7.36057 4.03003 7.50066C4.00003 7.60842 3.97003 7.70541 3.94003 7.81317C3.91003 7.96403 3.88003 8.12568 3.86003 8.28732C3.83003 8.47051 3.81003 8.69681 3.78003 8.93389C3.77003 9.0201 3.77003 9.11708 3.76003 9.20329C3.75003 9.35416 3.73003 9.50503 3.72003 9.67745C3.72003 9.699 3.72003 9.72055 3.72003 9.75288C3.71003 9.83909 3.71003 9.9253 3.70003 10.0115C3.69003 10.2163 3.67003 10.4318 3.66003 10.6581C3.65003 10.7658 3.65003 10.8844 3.64003 11.0029C3.63003 11.2184 3.62003 11.4447 3.61003 11.6818C3.60003 11.8111 3.60004 11.9404 3.60004 12.0698C3.59004 12.3176 3.58003 12.5762 3.58003 12.8349C3.58003 12.9534 3.57004 13.0719 3.57004 13.1905C3.56004 13.5676 3.55004 13.9556 3.54004 14.3435C3.54004 14.4082 3.54004 14.4836 3.54004 14.5591C3.53004 14.8823 3.53003 15.2164 3.53003 15.5505C3.53003 15.7013 3.53003 15.8414 3.53003 15.9923C3.53003 16.2509 3.53003 16.5095 3.52003 16.7682C3.52003 16.9298 3.52003 17.0915 3.52003 17.2531C3.52003 17.5225 3.52003 17.7811 3.52003 18.0398C3.52003 18.1798 3.52003 18.3199 3.52003 18.46C3.52003 18.8049 3.52003 19.1389 3.53003 19.473C3.53003 19.5269 3.53003 19.5807 3.53003 19.6346C3.53003 20.0226 3.54003 20.3997 3.55003 20.7661C3.55003 20.8631 3.55003 20.9601 3.56003 21.0571C3.57003 21.3157 3.57003 21.5743 3.58003 21.8222C3.58003 21.9407 3.59003 22.0485 3.59003 22.167C3.60003 22.3826 3.60003 22.5981 3.61003 22.8028C3.61003 22.9106 3.62003 23.0184 3.62003 23.1153C3.63003 23.3309 3.64004 23.5248 3.65004 23.7188C3.65004 23.7942 3.66003 23.8697 3.66003 23.9343C3.67003 24.1714 3.69003 24.3977 3.70003 24.5809C3.70003 24.5917 3.70003 24.5917 3.70003 24.5917C3.72003 24.8072 3.74003 25.0012 3.76003 25.152C3.83003 25.6154 3.94004 26.0357 4.07004 26.4344C4.09004 26.4883 4.09003 26.5422 4.11003 26.596C4.12003 26.6391 4.15003 26.6715 4.17003 26.7038C4.32003 27.1025 4.51003 27.4797 4.73003 27.8245C4.74003 27.8353 4.74003 27.8569 4.76003 27.8784C4.89003 28.0724 5.04003 28.2556 5.20003 28.428L9.62003 33.2018C8.53003 33.1264 7.66003 33.0186 7.17003 32.8893C6.76003 32.7708 6.37003 32.6415 6.00003 32.4906C4.89003 32.0272 3.95003 31.3807 3.19003 30.5617L9.19003 37.0597ZM31.59 10.3132C31.59 10.3994 31.6 10.4749 31.6 10.5503C31.6 10.6581 31.61 10.7766 31.61 10.8844C31.62 11.1322 31.62 11.3801 31.63 11.6495C31.63 11.7465 31.63 11.8327 31.64 11.9297C31.65 12.1667 31.65 12.4254 31.65 12.6732L28.92 9.72055C29.39 9.75288 29.79 9.79598 30.09 9.84986C30.63 9.93607 31.13 10.1085 31.59 10.3132ZM25.33 9.55891C25.3 9.58046 25.27 9.60201 25.24 9.62357C25.21 9.63434 25.18 9.64512 25.15 9.65589C24.94 9.7421 24.72 9.79598 24.48 9.79598C24.16 9.79598 23.88 9.67745 23.62 9.52658C24.21 9.53736 24.78 9.54813 25.33 9.55891ZM22.34 9.52658C22.72 9.52658 23.1 9.52658 23.48 9.52658L29.21 15.7229C29.54 16.0785 30 16.3048 30.51 16.3156C30.75 16.3156 30.97 16.2617 31.18 16.1755C31.21 16.1647 31.24 16.1539 31.27 16.1432C31.42 16.0785 31.56 15.9923 31.68 15.8845C31.68 15.9276 31.68 15.9707 31.68 16.0138C31.68 16.3156 31.68 16.6173 31.68 16.9298C31.68 17.0699 31.68 17.1992 31.68 17.3393C31.68 17.7704 31.67 18.2014 31.67 18.6217C31.67 18.7079 31.67 18.7941 31.67 18.8695C31.66 19.2144 31.66 19.5592 31.65 19.904C31.65 20.0441 31.64 20.1842 31.64 20.3243C31.63 20.6045 31.62 20.8847 31.61 21.1648C31.61 21.3049 31.6 21.445 31.6 21.5851C31.59 21.8653 31.58 22.1455 31.56 22.4149C31.55 22.5226 31.55 22.6412 31.54 22.7597C31.52 23.1261 31.5 23.4817 31.48 23.8158C31.48 23.8481 31.47 23.8804 31.47 23.9128C31.45 24.2037 31.42 24.4731 31.4 24.7318C31.39 24.8072 31.39 24.8719 31.38 24.9365C31.35 25.2059 31.32 25.4645 31.29 25.6801C31.29 25.7016 31.28 25.7232 31.28 25.7447C31.24 25.971 31.21 26.1865 31.16 26.3482C31.05 26.7792 30.92 27.178 30.78 27.5659C30.67 27.8569 30.55 28.1263 30.43 28.3849C30.36 28.5358 30.3 28.6974 30.23 28.8375C30.01 29.247 29.77 29.6349 29.5 29.9905C29.46 30.0444 29.41 30.0875 29.37 30.1306C29.12 30.4431 28.86 30.7341 28.57 31.0035C28.46 31.1005 28.34 31.1975 28.23 31.2837C27.99 31.4776 27.74 31.6608 27.48 31.8333C27.34 31.9195 27.2 32.0057 27.06 32.0811C26.78 32.232 26.48 32.3721 26.18 32.4906C26.04 32.5445 25.91 32.6091 25.77 32.6523C25.31 32.8031 24.84 32.9324 24.33 33.0186C22.99 33.2557 19.39 33.3958 15.78 33.3958C13.79 33.3958 11.81 33.3527 10.21 33.2557C10.21 33.2449 10.2 33.2449 10.2 33.2449C10.17 33.1587 10.13 33.0617 10.1 32.9755C9.97004 32.5768 9.85004 32.1565 9.79004 31.6932C9.77004 31.5423 9.75003 31.3591 9.73003 31.1328C9.71003 30.9388 9.70004 30.7125 9.68004 30.4647C9.68004 30.4 9.67003 30.3138 9.67003 30.2492C9.66003 30.066 9.65003 29.872 9.64003 29.6565C9.64003 29.5487 9.63004 29.441 9.63004 29.3332C9.62004 29.1392 9.62003 28.9237 9.61003 28.7082C9.61003 28.5896 9.60004 28.4711 9.60004 28.3526C9.59004 28.1155 9.59003 27.8784 9.58003 27.6306C9.58003 27.512 9.57004 27.4043 9.57004 27.2857C9.56004 26.9301 9.56003 26.5637 9.55003 26.1865C9.55003 26.1111 9.55003 26.0249 9.55003 25.9387C9.55003 25.6262 9.54004 25.3137 9.54004 24.9904C9.54004 24.8503 9.54004 24.721 9.54004 24.5809C9.54004 24.3115 9.54004 24.0421 9.54004 23.7619C9.54004 23.6218 9.54004 23.4709 9.54004 23.3309C9.54004 23.0507 9.54003 22.7705 9.55003 22.4903C9.55003 22.361 9.55003 22.2317 9.55003 22.1024C9.55003 21.7575 9.56003 21.4235 9.56003 21.0786C9.56003 21.014 9.56003 20.9493 9.56003 20.8847C9.57003 20.4859 9.58003 20.098 9.59003 19.7208C9.59003 19.6131 9.60004 19.5161 9.60004 19.4191C9.61004 19.1389 9.62004 18.8695 9.63004 18.6109C9.63004 18.4924 9.64003 18.3738 9.64003 18.2553C9.65003 18.0182 9.66003 17.7919 9.67003 17.5656C9.68003 17.4471 9.68003 17.3393 9.69003 17.2208C9.70003 16.9837 9.72003 16.7682 9.73003 16.5526C9.74003 16.4772 9.74004 16.391 9.74004 16.3156C9.75004 16.1108 9.77003 15.9384 9.78003 15.7552C9.79003 15.669 9.79003 15.572 9.80003 15.4966C9.82003 15.2487 9.85004 15.0332 9.88004 14.85C9.92004 14.5806 9.99003 14.322 10.05 14.0741C10.09 13.934 10.12 13.7939 10.16 13.6646C10.22 13.4814 10.29 13.309 10.36 13.1366C10.41 13.0288 10.45 12.9103 10.5 12.8025C10.57 12.6517 10.66 12.5224 10.74 12.3823C10.82 12.253 10.9 12.1129 10.98 11.9943C11.05 11.8973 11.13 11.8111 11.21 11.7249C11.35 11.5525 11.5 11.3909 11.66 11.24C11.75 11.1538 11.85 11.0783 11.95 11.0029C12.12 10.8736 12.29 10.7551 12.47 10.6365C12.58 10.5719 12.68 10.5072 12.79 10.4533C13 10.3456 13.21 10.2594 13.44 10.1839C13.54 10.1408 13.64 10.0977 13.75 10.0654C14.09 9.9684 14.44 9.88219 14.81 9.83909C16.18 9.62357 19.25 9.52658 22.34 9.52658Z" fill="#5C5C5C"/>
<path d="M24.5 5.79785C24.51 5.79785 24.52 5.79785 24.52 5.79785C25.54 5.79785 26.37 6.69227 26.36 7.813C26.35 8.91217 25.51 9.80659 24.48 9.80659C23.45 9.79581 22.63 8.89061 22.64 7.79144C22.65 6.69227 23.48 5.79785 24.5 5.79785Z" fill="white"/>
<path d="M31.49 8.37309C31.72 11.0025 31.87 23.4166 31.15 26.3262C30.19 30.1302 27.88 32.3824 24.31 33.0074C22.97 33.2445 19.37 33.3846 15.76 33.3846C12.07 33.3846 8.39005 33.2337 7.15005 32.8889C3.64005 31.9083 1.54003 29.4405 0.980032 25.6042C0.560032 22.7916 0.520041 9.69856 1.27004 6.86442C2.25004 3.1682 4.55004 0.991408 8.02004 0.377166C9.59004 0.0969856 12.67 0 15.78 0C18.67 0 21.59 0.0862095 23.35 0.183195C25.48 0.301733 27.42 1.04529 29.01 2.67249C30.52 4.22426 31.29 6.16397 31.49 8.37309ZM28.51 25.0438C28.95 22.1127 28.96 11.3904 28.7 8.64249C28.42 5.71137 26.76 3.77166 24.06 3.31906C22.73 3.10354 19.51 3.00655 16.31 3.00655C13.22 3.00655 10.15 3.09276 8.80004 3.25441C6.10004 3.58847 4.28004 5.38809 3.85004 8.28688C3.41004 11.3581 3.41004 22.8347 3.74004 25.1408C4.08004 27.5439 5.34003 29.1927 7.56003 29.8608C8.76003 30.2272 12.36 30.3565 15.89 30.3565C19.14 30.3565 22.33 30.2487 23.53 30.1086C26.27 29.7853 28.08 27.975 28.51 25.0438Z" fill="white"/>
<path d="M16.2501 8.12551C20.6301 8.12551 24.1601 11.9618 24.1301 16.6926C24.1001 21.4125 20.51 25.2489 16.12 25.2489C11.73 25.2489 8.21006 21.4125 8.24006 16.6818C8.27006 11.9511 11.8601 8.11473 16.2501 8.12551ZM16.1301 22.2208C18.9501 22.2208 21.2601 19.7746 21.3101 16.7357C21.3601 13.6645 19.1 11.1752 16.26 11.1428C16.24 11.1428 16.2301 11.1428 16.2101 11.1428C13.3901 11.1428 11.0801 13.589 11.0301 16.6279C10.9801 19.6883 13.2401 22.1884 16.0801 22.2208C16.1001 22.2208 16.1201 22.2208 16.1301 22.2208Z" fill="white"/>
</svg>
