<svg width="39" height="32" viewBox="0 0 39 32" fill="none" xmlns="http://www.w3.org/2000/svg">
<path d="M28.21 18.5807L22.19 12.0611C18.87 10.186 15.58 8.33254 12.29 6.46826C12.26 10.1968 12.24 13.8823 12.21 17.6216L18.23 24.1412C18.26 20.4019 18.28 16.7164 18.31 12.9878C21.61 14.8521 24.89 16.7056 28.21 18.5807Z" fill="#5C5C5C"/>
<path d="M38.18 20.488C38.2 19.7984 38.21 19.0979 38.21 18.4082C38.21 18.2789 38.21 18.1604 38.21 18.0419C38.21 17.363 38.19 16.6948 38.17 16.0375C38.17 15.9082 38.16 15.7789 38.15 15.6495C38.12 14.9814 38.08 14.3456 38.03 13.7422C38.03 13.7314 38.03 13.7206 38.03 13.7206C38.01 13.4835 37.99 13.268 37.96 13.0417C37.94 12.8908 37.93 12.74 37.92 12.5999C37.89 12.352 37.86 12.1257 37.82 11.9102C37.8 11.8024 37.79 11.6839 37.77 11.5761C37.73 11.3498 37.69 11.1559 37.65 10.9511C37.63 10.8649 37.62 10.7787 37.6 10.6925C37.54 10.4231 37.47 10.186 37.4 9.99205C37.39 9.98127 37.39 9.95972 37.38 9.94895C37.37 9.90584 37.34 9.88429 37.33 9.84118C37.22 9.55023 37.09 9.2916 36.93 9.04375C36.91 9.01142 36.9 8.96831 36.88 8.93599C36.78 8.78512 36.66 8.64503 36.54 8.50494L30.52 1.98535C30.67 2.14699 30.79 2.33019 30.92 2.52416C31.08 2.76124 31.21 3.03064 31.32 3.3216C31.34 3.37548 31.37 3.41858 31.39 3.47246C31.46 3.67721 31.53 3.91429 31.59 4.17291C31.61 4.2699 31.63 4.38844 31.65 4.48542C31.69 4.66862 31.73 4.84104 31.76 5.04579C31.78 5.16432 31.79 5.29364 31.81 5.41218C31.84 5.6277 31.87 5.83245 31.9 6.06952C31.92 6.20961 31.93 6.36048 31.94 6.51135C31.96 6.73765 31.99 6.96394 32.01 7.2118C32.06 7.81526 32.1 8.46183 32.13 9.12996C32.14 9.25927 32.14 9.37781 32.15 9.50712C32.17 10.1645 32.19 10.8326 32.19 11.5115C32.19 11.6408 32.19 11.7593 32.19 11.8887C32.19 12.5783 32.18 13.268 32.16 13.9577C32.16 13.9792 32.16 14.0116 32.16 14.0331C32.14 14.7336 32.1 15.4125 32.06 16.0698C32.05 16.2315 32.04 16.4039 32.03 16.5547C32.02 16.7056 32.01 16.8565 31.99 16.9966C31.97 17.2552 31.94 17.503 31.92 17.7509C31.91 17.891 31.89 18.0311 31.87 18.1712C31.84 18.419 31.81 18.6561 31.78 18.8932C31.76 19.0117 31.75 19.1302 31.73 19.238C31.68 19.5505 31.63 19.8523 31.57 20.1324C31.57 20.154 31.56 20.1755 31.56 20.1863C31.5 20.4665 31.44 20.7251 31.37 20.9622C31.35 21.0269 31.33 21.0915 31.31 21.1562C31.24 21.3717 31.18 21.5764 31.1 21.7489C31.03 21.8997 30.95 22.029 30.87 22.1691C30.82 22.2553 30.76 22.3523 30.7 22.4385C30.65 22.514 30.59 22.5786 30.54 22.6433C30.42 22.7941 30.29 22.9235 30.15 23.0528C30.09 23.1067 30.04 23.1605 29.98 23.2036C29.78 23.3653 29.58 23.5161 29.35 23.6455C28.27 24.2489 22.01 24.5291 15.87 24.5291C10.22 24.5291 4.68002 24.292 3.38002 23.8287C2.76002 23.6131 2.25002 23.2791 1.83002 22.8265L7.85002 29.3461C8.26002 29.7879 8.78002 30.1219 9.40002 30.3482C10.7 30.8008 16.24 31.0487 21.89 31.0487C28.03 31.0487 34.29 30.7685 35.37 30.165C35.6 30.0357 35.8 29.8849 36 29.7232C36.06 29.6801 36.11 29.6262 36.17 29.5724C36.31 29.443 36.44 29.3137 36.56 29.1629C36.59 29.1198 36.63 29.0982 36.66 29.0551C36.68 29.0228 36.7 28.9904 36.72 28.9581C36.78 28.8719 36.83 28.7857 36.89 28.6887C36.93 28.6241 36.97 28.5702 37.01 28.5055C37.05 28.4301 37.09 28.3547 37.12 28.2684C37.17 28.1607 37.21 28.0421 37.26 27.9128C37.28 27.8374 37.31 27.7512 37.33 27.6758C37.35 27.6111 37.37 27.5464 37.39 27.4818C37.46 27.2447 37.52 26.9969 37.58 26.7167C37.58 26.7167 37.58 26.7167 37.58 26.7059C37.58 26.6843 37.59 26.6736 37.59 26.652C37.65 26.3718 37.7 26.0701 37.75 25.7576C37.77 25.6498 37.78 25.5313 37.8 25.4128C37.83 25.1757 37.87 24.9386 37.89 24.6908C37.91 24.5507 37.92 24.4106 37.94 24.2705C37.97 24.0226 37.99 23.7748 38.01 23.5269C38.02 23.3761 38.04 23.236 38.05 23.0851C38.06 22.9989 38.07 22.9127 38.07 22.8265C38.08 22.751 38.08 22.6648 38.08 22.5894C38.12 21.9213 38.16 21.2424 38.18 20.5527C38.18 20.5311 38.18 20.5096 38.18 20.488Z" fill="#5C5C5C"/>
<path d="M31.38 3.47233C32.53 6.72673 32.48 18.5913 31.1 21.7379C30.72 22.6 30.12 23.182 29.36 23.6238C28.28 24.2272 22.02 24.5074 15.88 24.5074C10.23 24.5074 4.69 24.2703 3.39 23.807C2.19 23.3759 1.37 22.5246 0.939999 21.2315C-0.100001 18.0848 -0.330003 4.88401 1.75 2.28695C2.45 1.4033 3.37 0.875268 4.44 0.75673C6.9 0.465774 11.65 0.325684 16.34 0.325684C22.17 0.325684 27.9 0.541207 28.99 0.972254C30.14 1.41408 30.95 2.23307 31.38 3.47233ZM12.21 17.6322C15.53 15.7679 18.84 13.936 22.19 12.0717C18.87 10.1967 15.58 8.34316 12.29 6.47888C12.26 10.1967 12.23 13.8929 12.21 17.6322Z" fill="white"/>
</svg>
